<?xml version="1.0" encoding="utf-8"?>
<svg version="1.1" xmlns:xlink="http://www.w3.org/1999/xlink" width="154px" height="122px" xmlns="http://www.w3.org/2000/svg">
  <g transform="matrix(1 0 0 1 -162 -96 )">
    <path d="M 120.633333333333 97  L 33.3666666666667 97  C 29.8375 97.6  26.8163194444444 96.1067708333333  24.303125 93.1203125  C 21.7899305555556 90.1338541666667  20.5333333333333 86.54375  21 82.35  L 21 15.25  C 20.5333333333333 11.05625  21.7899305555556 7.46614583333333  24.303125 4.4796875  C 26.8163194444444 1.49322916666665  29.8375 0  33.3666666666667 0  L 120.633333333333 0  C 124.1625 0  127.183680555556 1.49322916666665  129.696875 4.4796875  C 132.210069444444 7.46614583333333  133.466666666667 11.05625  133 15.25  L 133 82.35  C 133.466666666667 86.54375  132.210069444444 90.1338541666667  129.696875 93.1203125  C 127.183680555556 96.1067708333333  124.1625 97.6  120.633333333333 97  Z M 31.5619791666667 13.10546875  C 31.0539930555556 13.7091145833333  30.8 14.4239583333333  31 15.25  L 31 82.35  C 30.8 83.1760416666666  31.0539930555556 83.8908854166666  31.5619791666667 84.49453125  C 32.0699652777778 85.0981770833333  32.6715277777778 85.4  33.3666666666667 85  L 120.633333333333 85  C 121.328472222222 85.4  121.930034722222 85.0981770833333  122.438020833333 84.49453125  C 122.946006944444 83.8908854166666  123.2 83.1760416666666  123 82.35  L 123 15.25  C 123.2 14.4239583333333  122.946006944444 13.7091145833333  122.438020833333 13.10546875  C 121.930034722222 12.5018229166666  121.328472222222 12.2  120.633333333333 13  L 33.3666666666667 13  C 32.6715277777778 12.2  32.0699652777778 12.5018229166666  31.5619791666667 13.10546875  Z M 12.8333333333333 103  L 141.166666666667 103  L 154 103.7  L 154 112.85  C 154 115.391666666667  152.743402777778 117.552083333333  150.230208333333 119.33125  C 147.717013888889 121.110416666667  144.695833333333 122  141.166666666667 122  L 12.8333333333333 122  C 9.30416666666667 122  6.28298611111111 121.110416666667  3.76979166666667 119.33125  C 1.25659722222222 117.552083333333  0 115.391666666667  0 112.85  L 0 103.7  L 12.8333333333333 103  Z M 70.5833333333333 112  L 83.4166666666667 112  C 84.2722222222222 112.85  84.7 112.341666666667  84.7 111.325  C 84.7 110.308333333333  84.2722222222222 109.8  83.4166666666667 109  L 70.5833333333333 109  C 69.7277777777778 109.8  69.3 110.308333333333  69.3 111.325  C 69.3 112.341666666667  69.7277777777778 112.85  70.5833333333333 112  Z " fill-rule="nonzero" fill="#000000" stroke="none" transform="matrix(1 0 0 1 162 96 )" />
  </g>
</svg>